<svg width="267.66" height="58.021" viewBox="0 0 267.66 58.021" xmlns="http://www.w3.org/2000/svg"><g id="svgGroup" stroke-linecap="round" fill-rule="evenodd" font-size="9pt" stroke="#000" stroke-width="0.25mm" fill="black" style="stroke:#000;stroke-width:0.25mm;fill:black"><path d="M 36.6 0 L 43.92 0 L 43.92 41.7 L 37.08 41.7 L 37.08 13.14 L 24.36 41.7 L 19.62 41.7 L 6.84 13.14 L 6.84 41.7 L 0 41.7 L 0 0 L 7.38 0 L 22.02 32.7 L 36.6 0 Z M 198 13.44 L 198 8.64 L 204.9 8.64 L 204.9 42.24 A 18.499 18.499 0 0 1 204.326 46.931 A 15.507 15.507 0 0 1 202.98 50.37 Q 201.06 53.94 197.43 55.98 A 15.512 15.512 0 0 1 192.622 57.683 A 21.163 21.163 0 0 1 188.76 58.02 A 23.637 23.637 0 0 1 183.767 57.52 A 16.569 16.569 0 0 1 177.6 54.87 A 11.904 11.904 0 0 1 173.838 50.649 A 12.2 12.2 0 0 1 172.56 46.32 L 179.34 46.32 A 7.116 7.116 0 0 0 181.881 49.942 A 9.413 9.413 0 0 0 182.67 50.49 A 10.345 10.345 0 0 0 186.443 51.892 A 13.75 13.75 0 0 0 188.76 52.08 A 11.074 11.074 0 0 0 191.752 51.695 A 8.386 8.386 0 0 0 195.45 49.56 A 8.079 8.079 0 0 0 197.494 46.063 Q 197.874 44.799 197.968 43.28 A 16.699 16.699 0 0 0 198 42.24 L 198 36.72 Q 196.26 39.06 193.29 40.65 Q 190.32 42.24 186.54 42.24 Q 182.22 42.24 178.65 40.05 A 15.389 15.389 0 0 1 173.157 34.204 A 18.277 18.277 0 0 1 173.01 33.93 Q 170.94 30 170.94 25.02 A 20.415 20.415 0 0 1 171.49 20.187 A 16.649 16.649 0 0 1 173.01 16.2 Q 175.08 12.36 178.65 10.23 Q 182.22 8.1 186.54 8.1 A 16.423 16.423 0 0 1 190.269 8.507 A 13.258 13.258 0 0 1 193.35 9.63 Q 196.32 11.16 198 13.44 Z M 123.84 22.2 L 123.84 41.7 L 117.06 41.7 L 117.06 23.22 Q 117.06 18.78 114.84 16.41 A 7.32 7.32 0 0 0 110.706 14.207 A 10.601 10.601 0 0 0 108.78 14.04 A 10.04 10.04 0 0 0 106.136 14.37 A 7.3 7.3 0 0 0 102.69 16.41 Q 100.72 18.485 100.475 22.146 A 16.068 16.068 0 0 0 100.44 23.22 L 100.44 41.7 L 93.6 41.7 L 93.6 8.64 L 100.44 8.64 L 100.44 12.42 A 11.159 11.159 0 0 1 104.17 9.5 A 13.185 13.185 0 0 1 104.73 9.24 Q 107.34 8.1 110.28 8.1 A 16.098 16.098 0 0 1 114.411 8.613 A 13.659 13.659 0 0 1 117.27 9.72 Q 120.36 11.34 122.1 14.52 A 13.706 13.706 0 0 1 123.507 18.515 Q 123.83 20.178 123.84 22.077 A 23.139 23.139 0 0 1 123.84 22.2 Z M 243.96 27.72 L 218.7 27.72 A 10.55 10.55 0 0 0 219.4 30.861 A 8.638 8.638 0 0 0 221.64 34.08 A 9.157 9.157 0 0 0 227.527 36.465 A 11.856 11.856 0 0 0 228.12 36.48 A 10.21 10.21 0 0 0 231.289 36.017 Q 234.361 35.018 235.92 31.86 L 243.3 31.86 Q 241.8 36.42 237.87 39.33 A 14.571 14.571 0 0 1 231.736 41.927 A 20.006 20.006 0 0 1 228.12 42.24 A 18.061 18.061 0 0 1 222.905 41.509 A 15.806 15.806 0 0 1 219.63 40.11 Q 215.88 37.98 213.75 34.11 Q 211.62 30.24 211.62 25.14 A 21.298 21.298 0 0 1 212.129 20.383 A 16.852 16.852 0 0 1 213.69 16.17 Q 215.76 12.3 219.51 10.2 Q 223.26 8.1 228.12 8.1 A 18.327 18.327 0 0 1 232.998 8.728 A 15.556 15.556 0 0 1 236.46 10.14 Q 240.12 12.18 242.16 15.87 Q 244.2 19.56 244.2 24.36 Q 244.2 26.22 243.96 27.72 Z M 77.7 13.44 L 77.7 8.64 L 84.6 8.64 L 84.6 41.7 L 77.7 41.7 L 77.7 36.78 A 12.574 12.574 0 0 1 74.874 39.515 A 16.085 16.085 0 0 1 72.96 40.68 Q 69.96 42.24 66.12 42.24 Q 61.86 42.24 58.32 40.05 Q 54.78 37.86 52.71 33.93 Q 50.64 30 50.64 25.02 A 20.415 20.415 0 0 1 51.19 20.187 A 16.649 16.649 0 0 1 52.71 16.2 Q 54.78 12.36 58.35 10.23 Q 61.92 8.1 66.24 8.1 A 16.811 16.811 0 0 1 69.679 8.436 A 12.842 12.842 0 0 1 73.05 9.63 A 15.354 15.354 0 0 1 75.812 11.467 A 12.479 12.479 0 0 1 77.7 13.44 Z M 157.32 13.44 L 157.32 8.64 L 164.22 8.64 L 164.22 41.7 L 157.32 41.7 L 157.32 36.78 A 12.574 12.574 0 0 1 154.494 39.515 A 16.085 16.085 0 0 1 152.58 40.68 Q 149.58 42.24 145.74 42.24 Q 141.48 42.24 137.94 40.05 Q 134.4 37.86 132.33 33.93 Q 130.26 30 130.26 25.02 A 20.415 20.415 0 0 1 130.81 20.187 A 16.649 16.649 0 0 1 132.33 16.2 Q 134.4 12.36 137.97 10.23 Q 141.54 8.1 145.86 8.1 A 16.811 16.811 0 0 1 149.299 8.436 A 12.842 12.842 0 0 1 152.67 9.63 A 15.354 15.354 0 0 1 155.432 11.467 A 12.479 12.479 0 0 1 157.32 13.44 Z M 267.66 8.1 L 267.66 15.18 L 265.92 15.18 A 12.655 12.655 0 0 0 263.598 15.379 Q 261.253 15.817 259.83 17.22 A 5.753 5.753 0 0 0 258.569 19.172 Q 257.842 20.949 257.768 23.672 A 23.182 23.182 0 0 0 257.76 24.3 L 257.76 41.7 L 250.92 41.7 L 250.92 8.64 L 257.76 8.64 L 257.76 13.44 Q 259.26 10.92 261.75 9.51 A 10.666 10.666 0 0 1 265.226 8.298 A 14.34 14.34 0 0 1 267.66 8.1 Z M 77.7 25.14 A 13.96 13.96 0 0 0 77.391 22.137 A 10.672 10.672 0 0 0 76.29 19.2 A 10.594 10.594 0 0 0 74.369 16.687 A 9.304 9.304 0 0 0 72.6 15.36 Q 70.32 14.04 67.68 14.04 Q 65.04 14.04 62.76 15.33 A 9.495 9.495 0 0 0 59.532 18.361 A 11.571 11.571 0 0 0 59.07 19.11 A 10.666 10.666 0 0 0 57.858 22.586 A 14.34 14.34 0 0 0 57.66 25.02 Q 57.66 28.44 59.07 31.02 Q 60.48 33.6 62.79 34.95 Q 65.1 36.3 67.68 36.3 Q 70.32 36.3 72.6 34.98 A 9.537 9.537 0 0 0 75.731 32.023 A 11.783 11.783 0 0 0 76.29 31.11 A 11.164 11.164 0 0 0 77.533 27.388 A 14.644 14.644 0 0 0 77.7 25.14 Z M 157.32 25.14 A 13.96 13.96 0 0 0 157.011 22.137 A 10.672 10.672 0 0 0 155.91 19.2 A 10.594 10.594 0 0 0 153.989 16.687 A 9.304 9.304 0 0 0 152.22 15.36 Q 149.94 14.04 147.3 14.04 Q 144.66 14.04 142.38 15.33 A 9.495 9.495 0 0 0 139.152 18.361 A 11.571 11.571 0 0 0 138.69 19.11 A 10.666 10.666 0 0 0 137.478 22.586 A 14.34 14.34 0 0 0 137.28 25.02 Q 137.28 28.44 138.69 31.02 Q 140.1 33.6 142.41 34.95 Q 144.72 36.3 147.3 36.3 Q 149.94 36.3 152.22 34.98 A 9.537 9.537 0 0 0 155.351 32.023 A 11.783 11.783 0 0 0 155.91 31.11 A 11.164 11.164 0 0 0 157.153 27.388 A 14.644 14.644 0 0 0 157.32 25.14 Z M 198 25.14 A 13.96 13.96 0 0 0 197.691 22.137 A 10.672 10.672 0 0 0 196.59 19.2 A 10.594 10.594 0 0 0 194.669 16.687 A 9.304 9.304 0 0 0 192.9 15.36 Q 190.62 14.04 187.98 14.04 Q 185.34 14.04 183.06 15.33 A 9.495 9.495 0 0 0 179.832 18.361 A 11.571 11.571 0 0 0 179.37 19.11 A 10.666 10.666 0 0 0 178.158 22.586 A 14.34 14.34 0 0 0 177.96 25.02 Q 177.96 28.44 179.37 31.02 Q 180.78 33.6 183.09 34.95 Q 185.4 36.3 187.98 36.3 Q 190.62 36.3 192.9 34.98 A 9.537 9.537 0 0 0 196.031 32.023 A 11.783 11.783 0 0 0 196.59 31.11 A 11.164 11.164 0 0 0 197.833 27.388 A 14.644 14.644 0 0 0 198 25.14 Z M 218.76 22.2 L 237.06 22.2 A 8.9 8.9 0 0 0 236.559 19.302 A 7.487 7.487 0 0 0 234.36 16.14 A 9.315 9.315 0 0 0 229.123 13.927 A 12.317 12.317 0 0 0 227.82 13.86 Q 224.28 13.86 221.76 16.11 A 8.914 8.914 0 0 0 219.082 20.542 A 12.068 12.068 0 0 0 218.76 22.2 Z" vector-effect="non-scaling-stroke"/></g></svg>