<svg width="20" height="20" viewBox="0 0 20 20" fill="none" xmlns="http://www.w3.org/2000/svg">
<path d="M5.00004 8.3335C4.08337 8.3335 3.33337 9.0835 3.33337 10.0002C3.33337 10.9168 4.08337 11.6668 5.00004 11.6668C5.91671 11.6668 6.66671 10.9168 6.66671 10.0002C6.66671 9.0835 5.91671 8.3335 5.00004 8.3335ZM15 8.3335C14.0834 8.3335 13.3334 9.0835 13.3334 10.0002C13.3334 10.9168 14.0834 11.6668 15 11.6668C15.9167 11.6668 16.6667 10.9168 16.6667 10.0002C16.6667 9.0835 15.9167 8.3335 15 8.3335ZM10 8.3335C9.08337 8.3335 8.33337 9.0835 8.33337 10.0002C8.33337 10.9168 9.08337 11.6668 10 11.6668C10.9167 11.6668 11.6667 10.9168 11.6667 10.0002C11.6667 9.0835 10.9167 8.3335 10 8.3335Z" fill="#C2CFE0"/>
</svg>
