<svg width="375.72" height="42.781" viewBox="0 0 375.72 42.781" xmlns="http://www.w3.org/2000/svg"><g id="svgGroup" stroke-linecap="round" fill-rule="evenodd" font-size="9pt" stroke="#000" stroke-width="0.25mm" fill="black" style="stroke:#000;stroke-width:0.25mm;fill:black"><path d="M 72.66 9.181 L 79.38 9.181 L 69.12 42.241 L 61.92 42.241 L 55.26 17.821 L 48.6 42.241 L 41.4 42.241 L 31.08 9.181 L 38.04 9.181 L 44.94 35.761 L 51.96 9.181 L 59.1 9.181 L 65.82 35.641 L 72.66 9.181 Z M 215.7 12.541 L 207.48 12.541 A 12.152 12.152 0 0 0 205.483 9.594 A 10.292 10.292 0 0 0 202.98 7.621 A 12.584 12.584 0 0 0 198.375 6.129 A 16.033 16.033 0 0 0 196.32 6.001 A 15.737 15.737 0 0 0 191.947 6.589 A 13.543 13.543 0 0 0 188.94 7.861 A 12.933 12.933 0 0 0 183.899 13.147 A 15.42 15.42 0 0 0 183.87 13.201 Q 182.04 16.681 182.04 21.301 A 19.737 19.737 0 0 0 182.469 25.509 A 15.33 15.33 0 0 0 183.87 29.401 Q 185.7 32.881 188.94 34.771 A 13.931 13.931 0 0 0 194.799 36.594 A 17.106 17.106 0 0 0 196.32 36.661 Q 200.1 36.661 202.98 35.041 A 10.645 10.645 0 0 0 206.828 31.299 A 13.471 13.471 0 0 0 207.48 30.121 L 215.7 30.121 A 19.157 19.157 0 0 1 211.662 36.543 A 18.248 18.248 0 0 1 208.17 39.361 Q 202.98 42.601 196.32 42.601 A 21.876 21.876 0 0 1 187.596 40.867 A 21.16 21.16 0 0 1 185.58 39.871 Q 180.72 37.141 177.87 32.281 A 20.904 20.904 0 0 1 175.065 22.811 A 25.32 25.32 0 0 1 175.02 21.301 A 22.519 22.519 0 0 1 176.078 14.31 A 20.169 20.169 0 0 1 177.87 10.321 Q 180.72 5.461 185.61 2.731 Q 190.5 0.001 196.32 0.001 Q 202.98 0.001 208.17 3.271 Q 213.36 6.541 215.7 12.541 Z M 27.48 5.881 L 8.1 36.301 L 27.48 36.301 L 27.48 42.241 L 0 42.241 L 0 36.901 L 19.32 6.481 L 0 6.481 L 0 0.541 L 27.48 0.541 L 27.48 5.881 Z M 153 22.741 L 153 42.241 L 146.22 42.241 L 146.22 23.761 Q 146.22 19.321 144 16.951 A 7.32 7.32 0 0 0 139.866 14.748 A 10.601 10.601 0 0 0 137.94 14.581 A 10.04 10.04 0 0 0 135.296 14.911 A 7.3 7.3 0 0 0 131.85 16.951 Q 129.88 19.026 129.635 22.687 A 16.068 16.068 0 0 0 129.6 23.761 L 129.6 42.241 L 122.76 42.241 L 122.76 9.181 L 129.6 9.181 L 129.6 12.961 A 11.159 11.159 0 0 1 133.33 10.041 A 13.185 13.185 0 0 1 133.89 9.781 Q 136.5 8.641 139.44 8.641 A 16.098 16.098 0 0 1 143.571 9.153 A 13.659 13.659 0 0 1 146.43 10.261 Q 149.52 11.881 151.26 15.061 A 13.706 13.706 0 0 1 152.667 19.056 Q 152.99 20.719 153 22.618 A 23.139 23.139 0 0 1 153 22.741 Z M 290.94 22.741 L 290.94 42.241 L 284.16 42.241 L 284.16 23.761 Q 284.16 19.321 281.94 16.951 A 7.32 7.32 0 0 0 277.806 14.748 A 10.601 10.601 0 0 0 275.88 14.581 A 10.04 10.04 0 0 0 273.236 14.911 A 7.3 7.3 0 0 0 269.79 16.951 Q 267.82 19.026 267.575 22.687 A 16.068 16.068 0 0 0 267.54 23.761 L 267.54 42.241 L 260.7 42.241 L 260.7 9.181 L 267.54 9.181 L 267.54 12.961 A 11.159 11.159 0 0 1 271.27 10.041 A 13.185 13.185 0 0 1 271.83 9.781 Q 274.44 8.641 277.38 8.641 A 16.098 16.098 0 0 1 281.511 9.153 A 13.659 13.659 0 0 1 284.37 10.261 Q 287.46 11.881 289.2 15.061 A 13.706 13.706 0 0 1 290.607 19.056 Q 290.93 20.719 290.94 22.618 A 23.139 23.139 0 0 1 290.94 22.741 Z M 253.74 28.261 L 228.48 28.261 A 10.55 10.55 0 0 0 229.18 31.402 A 8.638 8.638 0 0 0 231.42 34.621 A 9.157 9.157 0 0 0 237.307 37.006 A 11.856 11.856 0 0 0 237.9 37.021 A 10.21 10.21 0 0 0 241.069 36.558 Q 244.141 35.559 245.7 32.401 L 253.08 32.401 Q 251.58 36.961 247.65 39.871 A 14.571 14.571 0 0 1 241.516 42.468 A 20.006 20.006 0 0 1 237.9 42.781 A 18.061 18.061 0 0 1 232.685 42.05 A 15.806 15.806 0 0 1 229.41 40.651 Q 225.66 38.521 223.53 34.651 Q 221.4 30.781 221.4 25.681 A 21.298 21.298 0 0 1 221.909 20.923 A 16.852 16.852 0 0 1 223.47 16.711 Q 225.54 12.841 229.29 10.741 Q 233.04 8.641 237.9 8.641 A 18.327 18.327 0 0 1 242.778 9.269 A 15.556 15.556 0 0 1 246.24 10.681 Q 249.9 12.721 251.94 16.411 Q 253.98 20.101 253.98 24.901 Q 253.98 26.761 253.74 28.261 Z M 352.02 28.261 L 326.76 28.261 A 10.55 10.55 0 0 0 327.46 31.402 A 8.638 8.638 0 0 0 329.7 34.621 A 9.157 9.157 0 0 0 335.587 37.006 A 11.856 11.856 0 0 0 336.18 37.021 A 10.21 10.21 0 0 0 339.349 36.558 Q 342.421 35.559 343.98 32.401 L 351.36 32.401 Q 349.86 36.961 345.93 39.871 A 14.571 14.571 0 0 1 339.796 42.468 A 20.006 20.006 0 0 1 336.18 42.781 A 18.061 18.061 0 0 1 330.965 42.05 A 15.806 15.806 0 0 1 327.69 40.651 Q 323.94 38.521 321.81 34.651 Q 319.68 30.781 319.68 25.681 A 21.298 21.298 0 0 1 320.189 20.923 A 16.852 16.852 0 0 1 321.75 16.711 Q 323.82 12.841 327.57 10.741 Q 331.32 8.641 336.18 8.641 A 18.327 18.327 0 0 1 341.058 9.269 A 15.556 15.556 0 0 1 344.52 10.681 Q 348.18 12.721 350.22 16.411 Q 352.26 20.101 352.26 24.901 Q 352.26 26.761 352.02 28.261 Z M 315.66 14.761 L 307.62 14.761 L 307.62 33.061 A 6.263 6.263 0 0 0 307.688 34.018 Q 307.863 35.147 308.49 35.731 A 2.468 2.468 0 0 0 309.274 36.208 Q 310 36.495 311.102 36.535 A 10.076 10.076 0 0 0 311.46 36.541 L 315.66 36.541 L 315.66 42.241 L 310.26 42.241 A 15.895 15.895 0 0 1 307.583 42.03 Q 304.871 41.566 303.18 40.081 A 6.52 6.52 0 0 1 301.384 37.382 Q 300.99 36.316 300.83 34.992 A 16.098 16.098 0 0 1 300.72 33.061 L 300.72 14.761 L 296.82 14.761 L 296.82 9.181 L 300.72 9.181 L 300.72 0.961 L 307.62 0.961 L 307.62 9.181 L 315.66 9.181 L 315.66 14.761 Z M 93.129 41.885 A 17.698 17.698 0 0 0 98.82 42.781 Q 103.56 42.781 107.49 40.651 Q 111.42 38.521 113.7 34.621 A 16.103 16.103 0 0 0 115.298 30.852 A 18.959 18.959 0 0 0 115.98 25.681 A 21.214 21.214 0 0 0 115.858 23.381 A 16.987 16.987 0 0 0 113.76 16.741 Q 111.54 12.841 107.7 10.741 Q 103.86 8.641 99.12 8.641 A 20.673 20.673 0 0 0 97.949 8.674 A 17.275 17.275 0 0 0 90.54 10.741 Q 86.7 12.841 84.48 16.741 A 16.362 16.362 0 0 0 82.887 20.648 A 19.517 19.517 0 0 0 82.26 25.681 A 21.745 21.745 0 0 0 82.45 28.601 A 16.962 16.962 0 0 0 84.42 34.651 Q 86.58 38.521 90.36 40.651 A 16.119 16.119 0 0 0 93.129 41.885 Z M 375.72 8.641 L 375.72 15.721 L 373.98 15.721 A 12.655 12.655 0 0 0 371.658 15.92 Q 369.313 16.358 367.89 17.761 A 5.753 5.753 0 0 0 366.629 19.713 Q 365.902 21.49 365.828 24.212 A 23.182 23.182 0 0 0 365.82 24.841 L 365.82 42.241 L 358.98 42.241 L 358.98 9.181 L 365.82 9.181 L 365.82 13.981 Q 367.32 11.461 369.81 10.051 A 10.666 10.666 0 0 1 373.286 8.839 A 14.34 14.34 0 0 1 375.72 8.641 Z M 98.82 36.841 Q 101.46 36.841 103.77 35.581 A 9.325 9.325 0 0 0 106.999 32.63 A 11.534 11.534 0 0 0 107.52 31.801 Q 108.94 29.315 108.96 25.779 A 17.887 17.887 0 0 0 108.96 25.681 A 15.647 15.647 0 0 0 108.732 22.939 Q 108.399 21.069 107.58 19.591 A 9.969 9.969 0 0 0 105.698 17.137 A 8.797 8.797 0 0 0 103.92 15.841 Q 101.64 14.581 99 14.581 Q 96.36 14.581 94.11 15.841 Q 91.86 17.101 90.54 19.591 Q 89.22 22.081 89.22 25.681 A 16.775 16.775 0 0 0 89.514 28.924 Q 89.889 30.828 90.745 32.306 A 8.84 8.84 0 0 0 91.95 33.931 A 8.964 8.964 0 0 0 98.435 36.835 A 11.505 11.505 0 0 0 98.82 36.841 Z M 228.54 22.741 L 246.84 22.741 A 8.9 8.9 0 0 0 246.339 19.843 A 7.487 7.487 0 0 0 244.14 16.681 A 9.315 9.315 0 0 0 238.903 14.468 A 12.317 12.317 0 0 0 237.6 14.401 Q 234.06 14.401 231.54 16.651 A 8.914 8.914 0 0 0 228.862 21.083 A 12.068 12.068 0 0 0 228.54 22.741 Z M 326.82 22.741 L 345.12 22.741 A 8.9 8.9 0 0 0 344.619 19.843 A 7.487 7.487 0 0 0 342.42 16.681 A 9.315 9.315 0 0 0 337.183 14.468 A 12.317 12.317 0 0 0 335.88 14.401 Q 332.34 14.401 329.82 16.651 A 8.914 8.914 0 0 0 327.142 21.083 A 12.068 12.068 0 0 0 326.82 22.741 Z" vector-effect="non-scaling-stroke"/></g></svg>